# xmcd CD database file
#
# Track frame offsets:
#	150
#	20936
#	40713
#	62197
#	80571
#	105111
#	120292
#	140140
#	160290
#	181883
#	204220
#	219237
#	245572
#	263682
#	283948
#	299114
#
# Disc length: 4278 seconds
#
# Revision: 1
# Processed by: cddbd v1.4b42PL1 Copyright (c) Steve Scherf et al.
# Submitted via: CDex 1.40Beta5
#
DISCID=ed10b410
DTITLE=WHITNEY HOUSTON - SPECIAL CD1
DYEAR=1900
DGENRE=Blues
TTITLE0=I WILL ALWAYS LOVE YOU
TTITLE1=STEP BY STEP
TTITLE2=ONE MOMENT IN TIME
TTITLE3=TAKE GOOD CARE OF MY HEART
TTITLE4=MIRACLE
TTITLE5=EXMALE(SHOP,SHOP)
TTITLE6=I WANNA DANCE WITH SOMEBODY
TTITLE7=ALL AT ONCE
TTITLE8=I' AM EVERY WOMAN
TTITLE9=GREATEST LOVE OF ALL
TTITLE10=I'M YOUR BABY TONIGHT
TTITLE11=HOLD ME
TTITLE12=I BELIEVE IN YOU
TTITLE13=LOVE WILL LONELY TALKING AGAIN
TTITLE14=HOW WILL I KNOW
TTITLE15=I HAVE NOTHING
EXTD=ID3G:   0
EXTT0=
EXTT1=
EXTT2=
EXTT3=
EXTT4=
EXTT5=
EXTT6=
EXTT7=
EXTT8=
EXTT9=
EXTT10=
EXTT11=
EXTT12=
EXTT13=
EXTT14=
EXTT15=
PLAYORDER=
